<?xml version="1.0" encoding="UTF-8" standalone="no"?>
<!DOCTYPE svg PUBLIC "-//W3C//DTD SVG 1.1//EN"
 "http://www.w3.org/Graphics/SVG/1.1/DTD/svg11.dtd">
<!-- Generated by graphviz version 2.43.0 (0)
 -->
<!-- Title: AskFlow Pages: 1 -->
<svg width="576pt" height="58pt"
 viewBox="0.00 0.00 576.00 58.23" xmlns="http://www.w3.org/2000/svg" xmlns:xlink="http://www.w3.org/1999/xlink">
<g id="graph0" class="graph" transform="scale(0.29 0.29) rotate(0) translate(4 198.98)">
<title>AskFlow</title>
<polygon fill="white" stroke="transparent" points="-4,4 -4,-198.98 2003.85,-198.98 2003.85,4 -4,4"/>
<!-- start -->
<g id="node1" class="node">
<title>start</title>
<ellipse fill="lightgreen" stroke="black" cx="97.49" cy="-97.49" rx="97.48" ry="97.48"/>
<text text-anchor="middle" x="97.49" y="-93.79" font-family="Times,serif" font-size="14.00">Start: /ask request</text>
</g>
<!-- retrieve -->
<g id="node2" class="node">
<title>retrieve</title>
<polygon fill="none" stroke="black" points="423.98,-115.49 231.98,-115.49 231.98,-79.49 423.98,-79.49 423.98,-115.49"/>
<text text-anchor="middle" x="327.98" y="-93.79" font-family="Times,serif" font-size="14.00">Search FAQs in Postgres</text>
</g>
<!-- start&#45;&gt;retrieve -->
<g id="edge1" class="edge">
<title>start&#45;&gt;retrieve</title>
<path fill="none" stroke="black" d="M195.06,-97.49C203.91,-97.49 212.9,-97.49 221.82,-97.49"/>
<polygon fill="black" stroke="black" points="221.85,-100.99 231.85,-97.49 221.85,-93.99 221.85,-100.99"/>
</g>
<!-- gateway -->
<g id="node3" class="node">
<title>gateway</title>
<polygon fill="none" stroke="black" points="594.26,-115.49 461.2,-97.49 594.26,-79.49 727.32,-97.49 594.26,-115.49"/>
<text text-anchor="middle" x="594.26" y="-93.79" font-family="Times,serif" font-size="14.00">Relevant context?</text>
</g>
<!-- retrieve&#45;&gt;gateway -->
<g id="edge2" class="edge">
<title>retrieve&#45;&gt;gateway</title>
<path fill="none" stroke="black" d="M424.02,-97.49C432.73,-97.49 441.67,-97.49 450.68,-97.49"/>
<polygon fill="black" stroke="black" points="450.87,-100.99 460.87,-97.49 450.87,-93.99 450.87,-100.99"/>
</g>
<!-- nohit -->
<g id="node4" class="node">
<title>nohit</title>
<polygon fill="none" stroke="black" points="1207.54,-138.49 1041.54,-138.49 1041.54,-102.49 1207.54,-102.49 1207.54,-138.49"/>
<text text-anchor="middle" x="1124.54" y="-116.79" font-family="Times,serif" font-size="14.00">Return &#39;I don&#39;t know&#39;</text>
</g>
<!-- gateway&#45;&gt;nohit -->
<g id="edge3" class="edge">
<title>gateway&#45;&gt;nohit</title>
<path fill="none" stroke="black" d="M695.25,-101.84C791.93,-106.05 937.23,-112.38 1031.23,-116.47"/>
<polygon fill="black" stroke="black" points="1031.16,-119.97 1041.3,-116.91 1031.46,-112.98 1031.16,-119.97"/>
<text text-anchor="middle" x="783.54" y="-110.29" font-family="Times,serif" font-size="14.00">No hits</text>
</g>
<!-- build -->
<g id="node5" class="node">
<title>build</title>
<polygon fill="none" stroke="black" points="1023.54,-92.49 839.54,-92.49 839.54,-56.49 1023.54,-56.49 1023.54,-92.49"/>
<text text-anchor="middle" x="931.54" y="-70.79" font-family="Times,serif" font-size="14.00">Build grounded prompt</text>
</g>
<!-- gateway&#45;&gt;build -->
<g id="edge4" class="edge">
<title>gateway&#45;&gt;build</title>
<path fill="none" stroke="black" d="M670.89,-89.79C694.75,-87.53 721.23,-85.21 745.54,-83.49 772.56,-81.58 801.83,-79.95 828.94,-78.62"/>
<polygon fill="black" stroke="black" points="829.4,-82.11 839.22,-78.13 829.06,-75.11 829.4,-82.11"/>
<text text-anchor="middle" x="783.54" y="-87.29" font-family="Times,serif" font-size="14.00">Hits found</text>
</g>
<!-- merge -->
<g id="node7" class="node">
<title>merge</title>
<polygon fill="none" stroke="black" points="1512.45,-115.49 1454.63,-97.49 1512.45,-79.49 1570.26,-97.49 1512.45,-115.49"/>
<text text-anchor="middle" x="1512.45" y="-93.79" font-family="Times,serif" font-size="14.00">Merge</text>
</g>
<!-- nohit&#45;&gt;merge -->
<g id="edge7" class="edge">
<title>nohit&#45;&gt;merge</title>
<path fill="none" stroke="black" d="M1207.85,-115.59C1281.71,-111.18 1388.23,-104.83 1453.48,-100.95"/>
<polygon fill="black" stroke="black" points="1453.81,-104.43 1463.59,-100.34 1453.4,-97.44 1453.81,-104.43"/>
</g>
<!-- llm -->
<g id="node6" class="node">
<title>llm</title>
<polygon fill="none" stroke="black" points="1417.54,-92.49 1225.54,-92.49 1225.54,-56.49 1417.54,-56.49 1417.54,-92.49"/>
<text text-anchor="middle" x="1321.54" y="-70.79" font-family="Times,serif" font-size="14.00">Call LLM (OpenAI/demo)</text>
</g>
<!-- build&#45;&gt;llm -->
<g id="edge5" class="edge">
<title>build&#45;&gt;llm</title>
<path fill="none" stroke="black" d="M1024,-74.49C1081.29,-74.49 1155.32,-74.49 1215.08,-74.49"/>
<polygon fill="black" stroke="black" points="1215.3,-77.99 1225.3,-74.49 1215.3,-70.99 1215.3,-77.99"/>
</g>
<!-- llm&#45;&gt;merge -->
<g id="edge6" class="edge">
<title>llm&#45;&gt;merge</title>
<path fill="none" stroke="black" d="M1417.55,-86.06C1432.19,-87.84 1446.82,-89.62 1460.02,-91.23"/>
<polygon fill="black" stroke="black" points="1459.92,-94.74 1470.27,-92.48 1460.77,-87.8 1459.92,-94.74"/>
</g>
<!-- resp -->
<g id="node8" class="node">
<title>resp</title>
<polygon fill="none" stroke="black" points="1904.35,-115.49 1607.35,-115.49 1607.35,-79.49 1904.35,-79.49 1904.35,-115.49"/>
<text text-anchor="middle" x="1755.85" y="-93.79" font-family="Times,serif" font-size="14.00">Return JSON (answer, context, latency)</text>
</g>
<!-- merge&#45;&gt;resp -->
<g id="edge8" class="edge">
<title>merge&#45;&gt;resp</title>
<path fill="none" stroke="black" d="M1570.35,-97.49C1578.74,-97.49 1587.72,-97.49 1597.01,-97.49"/>
<polygon fill="black" stroke="black" points="1597.22,-100.99 1607.22,-97.49 1597.22,-93.99 1597.22,-100.99"/>
</g>
<!-- end -->
<g id="node9" class="node">
<title>end</title>
<ellipse fill="lightblue" stroke="black" cx="1970.6" cy="-97.49" rx="29.5" ry="29.5"/>
<text text-anchor="middle" x="1970.6" y="-93.79" font-family="Times,serif" font-size="14.00">End</text>
</g>
<!-- resp&#45;&gt;end -->
<g id="edge9" class="edge">
<title>resp&#45;&gt;end</title>
<path fill="none" stroke="black" d="M1904.61,-97.49C1914.08,-97.49 1923.03,-97.49 1931.08,-97.49"/>
<polygon fill="black" stroke="black" points="1931.13,-100.99 1941.13,-97.49 1931.13,-93.99 1931.13,-100.99"/>
</g>
</g>
</svg>
